<?xml version="1.0" encoding="UTF-8" standalone="no"?>
<svg
   xmlns:dc="http://purl.org/dc/elements/1.1/"
   xmlns:cc="http://creativecommons.org/ns#"
   xmlns:rdf="http://www.w3.org/1999/02/22-rdf-syntax-ns#"
   xmlns:svg="http://www.w3.org/2000/svg"
   xmlns="http://www.w3.org/2000/svg"
   xmlns:xlink="http://www.w3.org/1999/xlink"
   xmlns:sodipodi="http://sodipodi.sourceforge.net/DTD/sodipodi-0.dtd"
   xmlns:inkscape="http://www.inkscape.org/namespaces/inkscape"
   sodipodi:docname="prosentit.svg"
   id="svg8"
   version="1.1"
   viewBox="0 0 85.704994 44.11237"
   height="44.11237mm"
   width="85.704994mm"
   inkscape:version="1.0.2-2 (e86c870879, 2021-01-15)">
  <defs
     id="defs2">
    <g
       id="g4312">
      <symbol
         overflow="visible"
         id="symbol7070">
        <path
           style="stroke:none"
           d=""
           id="path3650" />
      </symbol>
      <symbol
         overflow="visible"
         id="symbol1068">
        <path
           style="stroke:none"
           d="m 4.25,-6.046875 c 0.078125,-0.28125 0.109375,-0.34375 0.234375,-0.375 0.09375,-0.015625 0.421875,-0.015625 0.625,-0.015625 1.015625,0 1.453125,0.03125 1.453125,0.8125 0,0.15625 -0.03125,0.546875 -0.078125,0.796875 0,0.046875 -0.03125,0.15625 -0.03125,0.1875 0,0.0625 0.03125,0.140625 0.125,0.140625 0.109375,0 0.125,-0.078125 0.15625,-0.234375 L 7,-6.46875 C 7.015625,-6.515625 7.015625,-6.609375 7.015625,-6.640625 7.015625,-6.75 6.921875,-6.75 6.75,-6.75 H 1.21875 c -0.234375,0 -0.25,0.015625 -0.328125,0.203125 l -0.59375,1.75 c 0,0.015625 -0.0625,0.15625 -0.0625,0.1875 0,0.046875 0.0625,0.109375 0.125,0.109375 0.09375,0 0.109375,-0.0625 0.171875,-0.21875 C 1.0625,-6.265625 1.328125,-6.4375 2.796875,-6.4375 H 3.1875 c 0.28125,0 0.28125,0.03125 0.28125,0.125 0,0.046875 -0.03125,0.171875 -0.046875,0.203125 L 2.09375,-0.78125 C 2,-0.421875 1.96875,-0.3125 0.90625,-0.3125 c -0.359375,0 -0.421875,0 -0.421875,0.1875 C 0.484375,0 0.59375,0 0.65625,0 c 0.265625,0 0.546875,-0.015625 0.8125,-0.015625 0.28125,0 0.578125,-0.015625 0.859375,-0.015625 0.28125,0 0.546875,0.015625 0.828125,0.015625 C 3.4375,-0.015625 3.734375,0 4.015625,0 c 0.09375,0 0.21875,0 0.21875,-0.203125 0,-0.109375 -0.078125,-0.109375 -0.34375,-0.109375 -0.234375,0 -0.375,0 -0.625,-0.015625 -0.296875,-0.03125 -0.375,-0.0625 -0.375,-0.21875 0,-0.015625 0,-0.0625 0.046875,-0.203125 z m 0,0"
           id="path3154" />
      </symbol>
      <symbol
         overflow="visible"
         id="symbol2202">
        <path
           style="stroke:none"
           d="m 1.859375,-2.296875 c 0.296875,0 1.03125,-0.03125 1.53125,-0.234375 0.703125,-0.296875 0.75,-0.890625 0.75,-1.03125 0,-0.4375 -0.375,-0.84375 -1.0625,-0.84375 -1.109375,0 -2.625,0.96875 -2.625,2.71875 0,1.015625 0.59375,1.796875 1.578125,1.796875 1.421875,0 2.25,-1.0625 2.25,-1.171875 0,-0.0625 -0.046875,-0.140625 -0.109375,-0.140625 -0.0625,0 -0.078125,0.03125 -0.140625,0.109375 -0.78125,0.984375 -1.875,0.984375 -1.984375,0.984375 -0.78125,0 -0.875,-0.84375 -0.875,-1.15625 0,-0.125 0.015625,-0.421875 0.15625,-1.03125 z m -0.46875,-0.21875 C 1.78125,-4.03125 2.8125,-4.1875 3.078125,-4.1875 c 0.453125,0 0.734375,0.296875 0.734375,0.625 0,1.046875 -1.59375,1.046875 -2.015625,1.046875 z m 0,0"
           id="path6389" />
      </symbol>
      <symbol
         overflow="visible"
         id="symbol9285">
        <path
           style="stroke:none"
           d="M 3.890625,-3.734375 C 3.625,-3.71875 3.421875,-3.5 3.421875,-3.28125 c 0,0.140625 0.09375,0.296875 0.3125,0.296875 0.21875,0 0.453125,-0.171875 0.453125,-0.5625 C 4.1875,-4 3.765625,-4.40625 3,-4.40625 c -1.3125,0 -1.6875,1.015625 -1.6875,1.453125 0,0.78125 0.734375,0.921875 1.03125,0.984375 0.515625,0.109375 1.03125,0.21875 1.03125,0.765625 0,0.25 -0.21875,1.09375 -1.421875,1.09375 -0.140625,0 -0.90625,0 -1.140625,-0.53125 0.390625,0.046875 0.640625,-0.25 0.640625,-0.53125 0,-0.21875 -0.171875,-0.34375 -0.375,-0.34375 -0.265625,0 -0.5625,0.203125 -0.5625,0.65625 0,0.5625 0.578125,0.96875 1.421875,0.96875 1.625,0 2.015625,-1.203125 2.015625,-1.65625 0,-0.359375 -0.1875,-0.609375 -0.3125,-0.71875 -0.265625,-0.28125 -0.5625,-0.34375 -1,-0.421875 -0.359375,-0.078125 -0.75,-0.15625 -0.75,-0.609375 C 1.890625,-3.578125 2.125,-4.1875 3,-4.1875 c 0.25,0 0.75,0.078125 0.890625,0.453125 z m 0,0"
           id="path4614" />
      </symbol>
      <symbol
         overflow="visible"
         id="symbol3908">
        <path
           style="stroke:none"
           d="m 2.046875,-3.984375 h 0.9375 c 0.203125,0 0.3125,0 0.3125,-0.203125 0,-0.109375 -0.109375,-0.109375 -0.28125,-0.109375 h -0.875 C 2.5,-5.71875 2.546875,-5.90625 2.546875,-5.96875 c 0,-0.171875 -0.125,-0.265625 -0.296875,-0.265625 -0.03125,0 -0.3125,0 -0.390625,0.359375 L 1.46875,-4.296875 h -0.9375 c -0.203125,0 -0.296875,0 -0.296875,0.1875 0,0.125 0.078125,0.125 0.28125,0.125 h 0.875 C 0.671875,-1.15625 0.625,-0.984375 0.625,-0.8125 0.625,-0.265625 1,0.109375 1.546875,0.109375 2.5625,0.109375 3.125,-1.34375 3.125,-1.421875 3.125,-1.53125 3.046875,-1.53125 3.015625,-1.53125 2.921875,-1.53125 2.90625,-1.5 2.859375,-1.390625 2.4375,-0.34375 1.90625,-0.109375 1.5625,-0.109375 c -0.203125,0 -0.3125,-0.125 -0.3125,-0.453125 0,-0.25 0.03125,-0.3125 0.0625,-0.484375 z m 0,0"
           id="path2036" />
      </symbol>
    </g>
    <g
       id="g6117">
      <symbol
         overflow="visible"
         id="symbol6941">
        <path
           style="stroke:none"
           d=""
           id="path165" />
      </symbol>
      <symbol
         overflow="visible"
         id="symbol6381">
        <path
           style="stroke:none"
           d="m 4.75,-6.078125 c 0.078125,-0.109375 0.078125,-0.125 0.078125,-0.34375 H 2.40625 c -1.203125,0 -1.234375,-0.125 -1.265625,-0.3125 h -0.25 L 0.5625,-4.6875 h 0.25 c 0.03125,-0.15625 0.109375,-0.78125 0.25,-0.90625 0.0625,-0.0625 0.84375,-0.0625 0.96875,-0.0625 h 2.0625 C 3.984375,-5.5 3.203125,-4.40625 2.984375,-4.078125 2.078125,-2.734375 1.75,-1.34375 1.75,-0.328125 c 0,0.09375 0,0.546875 0.46875,0.546875 0.453125,0 0.453125,-0.453125 0.453125,-0.546875 V -0.84375 c 0,-0.546875 0.03125,-1.09375 0.109375,-1.625 0.046875,-0.234375 0.171875,-1.09375 0.625,-1.703125 z m 0,0"
           id="path6257" />
      </symbol>
      <symbol
         overflow="visible"
         id="symbol5625">
        <path
           style="stroke:none"
           d="m 2.9375,-6.375 c 0,-0.25 0,-0.265625 -0.234375,-0.265625 C 2.078125,-6 1.203125,-6 0.890625,-6 v 0.3125 c 0.203125,0 0.78125,0 1.296875,-0.265625 v 5.171875 c 0,0.359375 -0.03125,0.46875 -0.921875,0.46875 h -0.3125 V 0 c 0.34375,-0.03125 1.203125,-0.03125 1.609375,-0.03125 0.390625,0 1.265625,0 1.609375,0.03125 v -0.3125 h -0.3125 c -0.90625,0 -0.921875,-0.109375 -0.921875,-0.46875 z m 0,0"
           id="path2332" />
      </symbol>
      <symbol
         overflow="visible"
         id="symbol4631">
        <path
           style="stroke:none"
           d="m 4.578125,-3.1875 c 0,-0.796875 -0.046875,-1.59375 -0.390625,-2.328125 -0.453125,-0.96875 -1.28125,-1.125 -1.6875,-1.125 -0.609375,0 -1.328125,0.265625 -1.75,1.1875 -0.3125,0.6875 -0.359375,1.46875 -0.359375,2.265625 0,0.75 0.03125,1.640625 0.453125,2.40625 0.421875,0.796875 1.15625,1 1.640625,1 0.53125,0 1.296875,-0.203125 1.734375,-1.15625 0.3125,-0.6875 0.359375,-1.46875 0.359375,-2.25 z M 2.484375,0 C 2.09375,0 1.5,-0.25 1.328125,-1.203125 1.21875,-1.796875 1.21875,-2.71875 1.21875,-3.3125 c 0,-0.640625 0,-1.296875 0.078125,-1.828125 0.1875,-1.1875 0.9375,-1.28125 1.1875,-1.28125 0.328125,0 0.984375,0.1875 1.171875,1.171875 0.109375,0.5625 0.109375,1.3125 0.109375,1.9375 0,0.75 0,1.421875 -0.109375,2.0625 C 3.5,-0.296875 2.9375,0 2.484375,0 Z m 0,0"
           id="path5573" />
      </symbol>
      <symbol
         overflow="visible"
         id="symbol636">
        <path
           style="stroke:none"
           d="m 6.84375,-3.265625 c 0.15625,0 0.34375,0 0.34375,-0.1875 C 7.1875,-3.65625 7,-3.65625 6.859375,-3.65625 h -5.96875 c -0.140625,0 -0.328125,0 -0.328125,0.203125 0,0.1875 0.1875,0.1875 0.328125,0.1875 z m 0.015625,1.9375 c 0.140625,0 0.328125,0 0.328125,-0.203125 0,-0.1875 -0.1875,-0.1875 -0.34375,-0.1875 H 0.890625 c -0.140625,0 -0.328125,0 -0.328125,0.1875 0,0.203125 0.1875,0.203125 0.328125,0.203125 z m 0,0"
           id="path4656" />
      </symbol>
      <symbol
         overflow="visible"
         id="symbol9032">
        <path
           style="stroke:none"
           d="m 6.828125,-7.09375 c 0.0625,-0.09375 0.078125,-0.125 0.078125,-0.1875 0,-0.109375 -0.09375,-0.203125 -0.203125,-0.203125 -0.09375,0 -0.140625,0.078125 -0.203125,0.140625 -0.5,0.6875 -1.171875,0.953125 -1.890625,0.953125 -0.703125,0 -1.3125,-0.25 -1.875,-0.765625 -0.1875,-0.171875 -0.390625,-0.328125 -0.703125,-0.328125 -0.765625,0 -1.46875,0.84375 -1.46875,2.015625 0,1.203125 0.71875,2.015625 1.46875,2.015625 0.71875,0 1.28125,-0.890625 1.28125,-2.015625 0,-0.140625 0,-0.609375 -0.203125,-1.125 0.65625,0.375 1.140625,0.421875 1.5,0.421875 0.765625,0 1.265625,-0.3125 1.328125,-0.34375 H 5.953125 L 1.46875,0.15625 c -0.078125,0.140625 -0.078125,0.1875 -0.078125,0.203125 0,0.109375 0.09375,0.203125 0.1875,0.203125 0.109375,0 0.125,-0.046875 0.203125,-0.15625 z M 2.03125,-3.671875 c -0.203125,0 -0.859375,-0.140625 -0.859375,-1.796875 0,-1.65625 0.65625,-1.78125 0.859375,-1.78125 0.53125,0 1.046875,0.734375 1.046875,1.78125 0,1.078125 -0.53125,1.796875 -1.046875,1.796875 z M 6.453125,0.34375 C 6.25,0.34375 5.59375,0.203125 5.59375,-1.453125 c 0,-1.65625 0.640625,-1.78125 0.859375,-1.78125 0.53125,0 1.03125,0.734375 1.03125,1.78125 0,1.078125 -0.515625,1.796875 -1.03125,1.796875 z m 1.28125,-1.796875 c 0,-1.140625 -0.59375,-2 -1.296875,-2 -0.75,0 -1.46875,0.828125 -1.46875,2 0,1.203125 0.71875,2.015625 1.46875,2.015625 0.734375,0 1.296875,-0.890625 1.296875,-2.015625 z m 0,0"
           id="path3574" />
      </symbol>
      <symbol
         overflow="visible"
         id="symbol3483">
        <path
           style="stroke:none"
           d=""
           id="path7205" />
      </symbol>
      <symbol
         overflow="visible"
         id="symbol2259">
        <path
           style="stroke:none"
           d="m 2.03125,-0.015625 c 0,-0.65625 -0.25,-1.046875 -0.640625,-1.046875 -0.328125,0 -0.53125,0.25 -0.53125,0.53125 C 0.859375,-0.265625 1.0625,0 1.390625,0 1.5,0 1.640625,-0.046875 1.734375,-0.125 1.765625,-0.15625 1.78125,-0.15625 1.78125,-0.15625 c 0.015625,0 0.015625,0 0.015625,0.140625 0,0.75 -0.34375,1.34375 -0.671875,1.671875 -0.109375,0.109375 -0.109375,0.125 -0.109375,0.15625 0,0.078125 0.046875,0.109375 0.09375,0.109375 0.109375,0 0.921875,-0.765625 0.921875,-1.9375 z m 0,0"
           id="path7314" />
      </symbol>
    </g>
    <g
       id="g3512">
      <symbol
         overflow="visible"
         id="symbol1012">
        <path
           style="stroke:none"
           d=""
           id="path1705" />
      </symbol>
      <symbol
         overflow="visible"
         id="symbol2479">
        <path
           style="stroke:none"
           d="m 1.71875,-3.75 v -0.65625 l -1.4375,0.109375 v 0.3125 c 0.703125,0 0.78125,0.0625 0.78125,0.5 v 4.65625 C 1.0625,1.625 0.953125,1.625 0.28125,1.625 V 1.9375 C 0.625,1.921875 1.140625,1.90625 1.390625,1.90625 c 0.28125,0 0.78125,0.015625 1.125,0.03125 V 1.625 C 1.859375,1.625 1.75,1.625 1.75,1.171875 V -0.59375 c 0.046875,0.171875 0.46875,0.703125 1.21875,0.703125 1.1875,0 2.21875,-0.984375 2.21875,-2.265625 0,-1.265625 -0.953125,-2.25 -2.078125,-2.25 -0.78125,0 -1.203125,0.4375 -1.390625,0.65625 z M 1.75,-1.140625 v -2.21875 C 2.03125,-3.875 2.515625,-4.15625 3.03125,-4.15625 c 0.734375,0 1.328125,0.875 1.328125,2 0,1.203125 -0.6875,2.046875 -1.421875,2.046875 -0.40625,0 -0.78125,-0.203125 -1.046875,-0.609375 C 1.75,-0.921875 1.75,-0.9375 1.75,-1.140625 Z m 0,0"
           id="path2856" />
      </symbol>
      <symbol
         overflow="visible"
         id="symbol5863">
        <path
           style="stroke:none"
           d="M 1.671875,-3.3125 V -4.40625 L 0.28125,-4.296875 v 0.3125 c 0.703125,0 0.78125,0.0625 0.78125,0.5625 V -0.75 c 0,0.4375 -0.109375,0.4375 -0.78125,0.4375 V 0 c 0.390625,-0.015625 0.859375,-0.03125 1.140625,-0.03125 0.390625,0 0.859375,0 1.265625,0.03125 V -0.3125 H 2.46875 c -0.734375,0 -0.75,-0.109375 -0.75,-0.46875 V -2.3125 c 0,-0.984375 0.421875,-1.875 1.171875,-1.875 0.0625,0 0.09375,0 0.109375,0.015625 -0.03125,0 -0.234375,0.125 -0.234375,0.390625 0,0.265625 0.21875,0.421875 0.4375,0.421875 0.171875,0 0.421875,-0.125 0.421875,-0.4375 0,-0.3125 -0.3125,-0.609375 -0.734375,-0.609375 -0.734375,0 -1.09375,0.671875 -1.21875,1.09375 z m 0,0"
           id="path543" />
      </symbol>
      <symbol
         overflow="visible"
         id="symbol9050">
        <path
           style="stroke:none"
           d="M 4.6875,-2.140625 C 4.6875,-3.40625 3.703125,-4.46875 2.5,-4.46875 c -1.25,0 -2.21875,1.09375 -2.21875,2.328125 0,1.296875 1.03125,2.25 2.203125,2.25 1.203125,0 2.203125,-0.984375 2.203125,-2.25 z m -2.1875,2 c -0.4375,0 -0.875,-0.203125 -1.140625,-0.671875 -0.25,-0.4375 -0.25,-1.046875 -0.25,-1.40625 0,-0.390625 0,-0.921875 0.234375,-1.359375 C 1.609375,-4.03125 2.078125,-4.25 2.484375,-4.25 c 0.4375,0 0.859375,0.21875 1.125,0.65625 0.265625,0.421875 0.265625,1 0.265625,1.375 0,0.359375 0,0.90625 -0.21875,1.34375 C 3.421875,-0.421875 2.984375,-0.140625 2.5,-0.140625 Z m 0,0"
           id="path4149" />
      </symbol>
      <symbol
         overflow="visible"
         id="symbol7357">
        <path
           style="stroke:none"
           d="m 2.078125,-1.9375 c 0.21875,0.046875 1.03125,0.203125 1.03125,0.921875 0,0.5 -0.34375,0.90625 -1.125,0.90625 -0.84375,0 -1.203125,-0.5625 -1.390625,-1.421875 C 0.5625,-1.65625 0.5625,-1.6875 0.453125,-1.6875 c -0.125,0 -0.125,0.0625 -0.125,0.234375 V -0.125 c 0,0.171875 0,0.234375 0.109375,0.234375 0.046875,0 0.0625,-0.015625 0.25,-0.203125 0.015625,-0.015625 0.015625,-0.03125 0.203125,-0.21875 0.4375,0.40625 0.890625,0.421875 1.09375,0.421875 1.140625,0 1.609375,-0.671875 1.609375,-1.390625 0,-0.515625 -0.296875,-0.828125 -0.421875,-0.9375 C 2.84375,-2.546875 2.453125,-2.625 2.03125,-2.703125 1.46875,-2.8125 0.8125,-2.9375 0.8125,-3.515625 c 0,-0.359375 0.25,-0.765625 1.109375,-0.765625 1.09375,0 1.15625,0.90625 1.171875,1.203125 0,0.09375 0.09375,0.09375 0.109375,0.09375 0.140625,0 0.140625,-0.046875 0.140625,-0.234375 v -1.015625 c 0,-0.15625 0,-0.234375 -0.109375,-0.234375 -0.046875,0 -0.078125,0 -0.203125,0.125 -0.03125,0.03125 -0.125,0.125 -0.171875,0.15625 -0.375,-0.28125 -0.78125,-0.28125 -0.9375,-0.28125 -1.21875,0 -1.59375,0.671875 -1.59375,1.234375 0,0.34375 0.15625,0.625 0.421875,0.84375 0.328125,0.25 0.609375,0.3125 1.328125,0.453125 z m 0,0"
           id="path2986" />
      </symbol>
      <symbol
         overflow="visible"
         id="symbol1505">
        <path
           style="stroke:none"
           d="M 1.109375,-2.515625 C 1.171875,-4 2.015625,-4.25 2.359375,-4.25 c 1.015625,0 1.125,1.34375 1.125,1.734375 z m 0,0.21875 h 2.78125 c 0.21875,0 0.25,0 0.25,-0.21875 0,-0.984375 -0.546875,-1.953125 -1.78125,-1.953125 -1.15625,0 -2.078125,1.03125 -2.078125,2.28125 0,1.328125 1.046875,2.296875 2.1875,2.296875 C 3.6875,0.109375 4.140625,-1 4.140625,-1.1875 4.140625,-1.28125 4.0625,-1.3125 4,-1.3125 c -0.078125,0 -0.109375,0.0625 -0.125,0.140625 -0.34375,1.03125 -1.25,1.03125 -1.34375,1.03125 -0.5,0 -0.890625,-0.296875 -1.125,-0.671875 -0.296875,-0.46875 -0.296875,-1.125 -0.296875,-1.484375 z m 0,0"
           id="path2748" />
      </symbol>
      <symbol
         overflow="visible"
         id="symbol4413">
        <path
           style="stroke:none"
           d="M 1.09375,-3.421875 V -0.75 c 0,0.4375 -0.109375,0.4375 -0.78125,0.4375 V 0 c 0.359375,-0.015625 0.859375,-0.03125 1.140625,-0.03125 0.25,0 0.765625,0.015625 1.109375,0.03125 v -0.3125 c -0.671875,0 -0.78125,0 -0.78125,-0.4375 V -2.59375 C 1.78125,-3.625 2.5,-4.1875 3.125,-4.1875 c 0.640625,0 0.75,0.53125 0.75,1.109375 V -0.75 c 0,0.4375 -0.109375,0.4375 -0.78125,0.4375 V 0 c 0.34375,-0.015625 0.859375,-0.03125 1.125,-0.03125 0.25,0 0.78125,0.015625 1.109375,0.03125 v -0.3125 c -0.515625,0 -0.765625,0 -0.765625,-0.296875 v -1.90625 c 0,-0.859375 0,-1.15625 -0.3125,-1.515625 -0.140625,-0.171875 -0.46875,-0.375 -1.046875,-0.375 C 2.46875,-4.40625 2,-3.984375 1.71875,-3.359375 V -4.40625 L 0.3125,-4.296875 v 0.3125 c 0.703125,0 0.78125,0.0625 0.78125,0.5625 z m 0,0"
           id="path301" />
      </symbol>
      <symbol
         overflow="visible"
         id="symbol5412">
        <path
           style="stroke:none"
           d="m 1.71875,-3.984375 h 1.4375 v -0.3125 H 1.71875 V -6.125 h -0.25 c 0,0.8125 -0.296875,1.875 -1.28125,1.921875 v 0.21875 h 0.84375 v 2.75 c 0,1.21875 0.9375,1.34375 1.296875,1.34375 0.703125,0 0.984375,-0.703125 0.984375,-1.34375 v -0.5625 h -0.25 V -1.25 c 0,0.734375 -0.296875,1.109375 -0.671875,1.109375 -0.671875,0 -0.671875,-0.90625 -0.671875,-1.078125 z m 0,0"
           id="path8776" />
      </symbol>
      <symbol
         overflow="visible"
         id="symbol7268">
        <path
           style="stroke:none"
           d="M 1.765625,-4.40625 0.375,-4.296875 v 0.3125 c 0.640625,0 0.734375,0.0625 0.734375,0.546875 V -0.75 c 0,0.4375 -0.109375,0.4375 -0.78125,0.4375 V 0 C 0.640625,-0.015625 1.1875,-0.03125 1.421875,-0.03125 1.78125,-0.03125 2.125,-0.015625 2.46875,0 v -0.3125 c -0.671875,0 -0.703125,-0.046875 -0.703125,-0.4375 z m 0.03125,-1.734375 c 0,-0.3125 -0.234375,-0.53125 -0.515625,-0.53125 -0.3125,0 -0.53125,0.265625 -0.53125,0.53125 0,0.265625 0.21875,0.53125 0.53125,0.53125 0.28125,0 0.515625,-0.21875 0.515625,-0.53125 z m 0,0"
           id="path6924" />
      </symbol>
      <symbol
         overflow="visible"
         id="symbol6653">
        <path
           style="stroke:none"
           d="m 1.0625,-0.75 c 0,0.4375 -0.109375,0.4375 -0.78125,0.4375 V 0 c 0.328125,-0.015625 0.796875,-0.03125 1.078125,-0.03125 0.3125,0 0.703125,0.015625 1.109375,0.03125 v -0.3125 c -0.671875,0 -0.78125,0 -0.78125,-0.4375 v -1.03125 l 0.640625,-0.546875 c 0.765625,1.046875 1.1875,1.609375 1.1875,1.796875 0,0.1875 -0.171875,0.21875 -0.359375,0.21875 V 0 c 0.265625,-0.015625 0.859375,-0.03125 1.078125,-0.03125 0.28125,0 0.578125,0.015625 0.859375,0.03125 v -0.3125 c -0.375,0 -0.59375,0 -0.96875,-0.53125 L 2.859375,-2.625 c -0.015625,-0.015625 -0.0625,-0.078125 -0.0625,-0.109375 0,-0.03125 0.71875,-0.640625 0.8125,-0.71875 0.625,-0.5 1.046875,-0.53125 1.25,-0.53125 v -0.3125 c -0.28125,0.03125 -0.40625,0.03125 -0.6875,0.03125 -0.359375,0 -0.984375,-0.015625 -1.125,-0.03125 v 0.3125 c 0.1875,0 0.296875,0.109375 0.296875,0.25 0,0.203125 -0.140625,0.3125 -0.21875,0.390625 l -1.40625,1.203125 v -4.78125 L 0.28125,-6.8125 V -6.5 c 0.703125,0 0.78125,0.0625 0.78125,0.5625 z m 0,0"
           id="path6248" />
      </symbol>
    </g>
    <g
       id="g4188">
      <symbol
         overflow="visible"
         id="symbol5471">
        <path
           style="stroke:none"
           d=""
           id="path8716" />
      </symbol>
      <symbol
         overflow="visible"
         id="symbol8431">
        <path
           style="stroke:none"
           d="m 1.71875,-3.75 v -0.65625 l -1.4375,0.109375 v 0.3125 c 0.703125,0 0.78125,0.0625 0.78125,0.5 v 4.65625 C 1.0625,1.625 0.953125,1.625 0.28125,1.625 V 1.9375 C 0.625,1.921875 1.140625,1.90625 1.390625,1.90625 c 0.28125,0 0.78125,0.015625 1.125,0.03125 V 1.625 C 1.859375,1.625 1.75,1.625 1.75,1.171875 V -0.59375 c 0.046875,0.171875 0.46875,0.703125 1.21875,0.703125 1.1875,0 2.21875,-0.984375 2.21875,-2.265625 0,-1.265625 -0.953125,-2.25 -2.078125,-2.25 -0.78125,0 -1.203125,0.4375 -1.390625,0.65625 z M 1.75,-1.140625 v -2.21875 C 2.03125,-3.875 2.515625,-4.15625 3.03125,-4.15625 c 0.734375,0 1.328125,0.875 1.328125,2 0,1.203125 -0.6875,2.046875 -1.421875,2.046875 -0.40625,0 -0.78125,-0.203125 -1.046875,-0.609375 C 1.75,-0.921875 1.75,-0.9375 1.75,-1.140625 Z m 0,0"
           id="path6053" />
      </symbol>
      <symbol
         overflow="visible"
         id="symbol8059">
        <path
           style="stroke:none"
           d="M 1.671875,-3.3125 V -4.40625 L 0.28125,-4.296875 v 0.3125 c 0.703125,0 0.78125,0.0625 0.78125,0.5625 V -0.75 c 0,0.4375 -0.109375,0.4375 -0.78125,0.4375 V 0 c 0.390625,-0.015625 0.859375,-0.03125 1.140625,-0.03125 0.390625,0 0.859375,0 1.265625,0.03125 V -0.3125 H 2.46875 c -0.734375,0 -0.75,-0.109375 -0.75,-0.46875 V -2.3125 c 0,-0.984375 0.421875,-1.875 1.171875,-1.875 0.0625,0 0.09375,0 0.109375,0.015625 -0.03125,0 -0.234375,0.125 -0.234375,0.390625 0,0.265625 0.21875,0.421875 0.4375,0.421875 0.171875,0 0.421875,-0.125 0.421875,-0.4375 0,-0.3125 -0.3125,-0.609375 -0.734375,-0.609375 -0.734375,0 -1.09375,0.671875 -1.21875,1.09375 z m 0,0"
           id="path4584" />
      </symbol>
      <symbol
         overflow="visible"
         id="symbol1712">
        <path
           style="stroke:none"
           d="M 4.6875,-2.140625 C 4.6875,-3.40625 3.703125,-4.46875 2.5,-4.46875 c -1.25,0 -2.21875,1.09375 -2.21875,2.328125 0,1.296875 1.03125,2.25 2.203125,2.25 1.203125,0 2.203125,-0.984375 2.203125,-2.25 z m -2.1875,2 c -0.4375,0 -0.875,-0.203125 -1.140625,-0.671875 -0.25,-0.4375 -0.25,-1.046875 -0.25,-1.40625 0,-0.390625 0,-0.921875 0.234375,-1.359375 C 1.609375,-4.03125 2.078125,-4.25 2.484375,-4.25 c 0.4375,0 0.859375,0.21875 1.125,0.65625 0.265625,0.421875 0.265625,1 0.265625,1.375 0,0.359375 0,0.90625 -0.21875,1.34375 C 3.421875,-0.421875 2.984375,-0.140625 2.5,-0.140625 Z m 0,0"
           id="path7184" />
      </symbol>
      <symbol
         overflow="visible"
         id="symbol1044">
        <path
           style="stroke:none"
           d="m 2.078125,-1.9375 c 0.21875,0.046875 1.03125,0.203125 1.03125,0.921875 0,0.5 -0.34375,0.90625 -1.125,0.90625 -0.84375,0 -1.203125,-0.5625 -1.390625,-1.421875 C 0.5625,-1.65625 0.5625,-1.6875 0.453125,-1.6875 c -0.125,0 -0.125,0.0625 -0.125,0.234375 V -0.125 c 0,0.171875 0,0.234375 0.109375,0.234375 0.046875,0 0.0625,-0.015625 0.25,-0.203125 0.015625,-0.015625 0.015625,-0.03125 0.203125,-0.21875 0.4375,0.40625 0.890625,0.421875 1.09375,0.421875 1.140625,0 1.609375,-0.671875 1.609375,-1.390625 0,-0.515625 -0.296875,-0.828125 -0.421875,-0.9375 C 2.84375,-2.546875 2.453125,-2.625 2.03125,-2.703125 1.46875,-2.8125 0.8125,-2.9375 0.8125,-3.515625 c 0,-0.359375 0.25,-0.765625 1.109375,-0.765625 1.09375,0 1.15625,0.90625 1.171875,1.203125 0,0.09375 0.09375,0.09375 0.109375,0.09375 0.140625,0 0.140625,-0.046875 0.140625,-0.234375 v -1.015625 c 0,-0.15625 0,-0.234375 -0.109375,-0.234375 -0.046875,0 -0.078125,0 -0.203125,0.125 -0.03125,0.03125 -0.125,0.125 -0.171875,0.15625 -0.375,-0.28125 -0.78125,-0.28125 -0.9375,-0.28125 -1.21875,0 -1.59375,0.671875 -1.59375,1.234375 0,0.34375 0.15625,0.625 0.421875,0.84375 0.328125,0.25 0.609375,0.3125 1.328125,0.453125 z m 0,0"
           id="path5114" />
      </symbol>
      <symbol
         overflow="visible"
         id="symbol352">
        <path
           style="stroke:none"
           d="M 1.109375,-2.515625 C 1.171875,-4 2.015625,-4.25 2.359375,-4.25 c 1.015625,0 1.125,1.34375 1.125,1.734375 z m 0,0.21875 h 2.78125 c 0.21875,0 0.25,0 0.25,-0.21875 0,-0.984375 -0.546875,-1.953125 -1.78125,-1.953125 -1.15625,0 -2.078125,1.03125 -2.078125,2.28125 0,1.328125 1.046875,2.296875 2.1875,2.296875 C 3.6875,0.109375 4.140625,-1 4.140625,-1.1875 4.140625,-1.28125 4.0625,-1.3125 4,-1.3125 c -0.078125,0 -0.109375,0.0625 -0.125,0.140625 -0.34375,1.03125 -1.25,1.03125 -1.34375,1.03125 -0.5,0 -0.890625,-0.296875 -1.125,-0.671875 -0.296875,-0.46875 -0.296875,-1.125 -0.296875,-1.484375 z m 0,0"
           id="path3816" />
      </symbol>
      <symbol
         overflow="visible"
         id="symbol153">
        <path
           style="stroke:none"
           d="M 1.09375,-3.421875 V -0.75 c 0,0.4375 -0.109375,0.4375 -0.78125,0.4375 V 0 c 0.359375,-0.015625 0.859375,-0.03125 1.140625,-0.03125 0.25,0 0.765625,0.015625 1.109375,0.03125 v -0.3125 c -0.671875,0 -0.78125,0 -0.78125,-0.4375 V -2.59375 C 1.78125,-3.625 2.5,-4.1875 3.125,-4.1875 c 0.640625,0 0.75,0.53125 0.75,1.109375 V -0.75 c 0,0.4375 -0.109375,0.4375 -0.78125,0.4375 V 0 c 0.34375,-0.015625 0.859375,-0.03125 1.125,-0.03125 0.25,0 0.78125,0.015625 1.109375,0.03125 v -0.3125 c -0.515625,0 -0.765625,0 -0.765625,-0.296875 v -1.90625 c 0,-0.859375 0,-1.15625 -0.3125,-1.515625 -0.140625,-0.171875 -0.46875,-0.375 -1.046875,-0.375 C 2.46875,-4.40625 2,-3.984375 1.71875,-3.359375 V -4.40625 L 0.3125,-4.296875 v 0.3125 c 0.703125,0 0.78125,0.0625 0.78125,0.5625 z m 0,0"
           id="path6342" />
      </symbol>
      <symbol
         overflow="visible"
         id="symbol7241">
        <path
           style="stroke:none"
           d="m 1.71875,-3.984375 h 1.4375 v -0.3125 H 1.71875 V -6.125 h -0.25 c 0,0.8125 -0.296875,1.875 -1.28125,1.921875 v 0.21875 h 0.84375 v 2.75 c 0,1.21875 0.9375,1.34375 1.296875,1.34375 0.703125,0 0.984375,-0.703125 0.984375,-1.34375 v -0.5625 h -0.25 V -1.25 c 0,0.734375 -0.296875,1.109375 -0.671875,1.109375 -0.671875,0 -0.671875,-0.90625 -0.671875,-1.078125 z m 0,0"
           id="path386" />
      </symbol>
      <symbol
         overflow="visible"
         id="symbol419">
        <path
           style="stroke:none"
           d="M 1.765625,-4.40625 0.375,-4.296875 v 0.3125 c 0.640625,0 0.734375,0.0625 0.734375,0.546875 V -0.75 c 0,0.4375 -0.109375,0.4375 -0.78125,0.4375 V 0 C 0.640625,-0.015625 1.1875,-0.03125 1.421875,-0.03125 1.78125,-0.03125 2.125,-0.015625 2.46875,0 v -0.3125 c -0.671875,0 -0.703125,-0.046875 -0.703125,-0.4375 z m 0.03125,-1.734375 c 0,-0.3125 -0.234375,-0.53125 -0.515625,-0.53125 -0.3125,0 -0.53125,0.265625 -0.53125,0.53125 0,0.265625 0.21875,0.53125 0.53125,0.53125 0.28125,0 0.515625,-0.21875 0.515625,-0.53125 z m 0,0"
           id="path6487" />
      </symbol>
      <symbol
         overflow="visible"
         id="symbol5221">
        <path
           style="stroke:none"
           d="M 1.765625,-6.921875 0.328125,-6.8125 V -6.5 c 0.703125,0 0.78125,0.0625 0.78125,0.5625 V -0.75 c 0,0.4375 -0.109375,0.4375 -0.78125,0.4375 V 0 C 0.65625,-0.015625 1.1875,-0.03125 1.4375,-0.03125 c 0.25,0 0.734375,0.015625 1.109375,0.03125 v -0.3125 c -0.671875,0 -0.78125,0 -0.78125,-0.4375 z m 0,0"
           id="path1515" />
      </symbol>
      <symbol
         overflow="visible"
         id="symbol1259">
        <path
           style="stroke:none"
           d="M 3.890625,-0.78125 V 0.109375 L 5.328125,0 V -0.3125 C 4.640625,-0.3125 4.5625,-0.375 4.5625,-0.875 v -3.53125 l -1.46875,0.109375 v 0.3125 c 0.6875,0 0.78125,0.0625 0.78125,0.5625 v 1.765625 c 0,0.875 -0.484375,1.546875 -1.21875,1.546875 -0.828125,0 -0.875,-0.46875 -0.875,-0.984375 v -3.3125 L 0.3125,-4.296875 v 0.3125 c 0.78125,0 0.78125,0.03125 0.78125,0.90625 v 1.5 c 0,0.78125 0,1.6875 1.515625,1.6875 0.5625,0 1,-0.28125 1.28125,-0.890625 z m 0,0"
           id="path2969" />
      </symbol>
      <symbol
         overflow="visible"
         id="symbol9737">
        <path
           style="stroke:none"
           d="m 1.0625,-0.75 c 0,0.4375 -0.109375,0.4375 -0.78125,0.4375 V 0 c 0.328125,-0.015625 0.796875,-0.03125 1.078125,-0.03125 0.3125,0 0.703125,0.015625 1.109375,0.03125 v -0.3125 c -0.671875,0 -0.78125,0 -0.78125,-0.4375 v -1.03125 l 0.640625,-0.546875 c 0.765625,1.046875 1.1875,1.609375 1.1875,1.796875 0,0.1875 -0.171875,0.21875 -0.359375,0.21875 V 0 c 0.265625,-0.015625 0.859375,-0.03125 1.078125,-0.03125 0.28125,0 0.578125,0.015625 0.859375,0.03125 v -0.3125 c -0.375,0 -0.59375,0 -0.96875,-0.53125 L 2.859375,-2.625 c -0.015625,-0.015625 -0.0625,-0.078125 -0.0625,-0.109375 0,-0.03125 0.71875,-0.640625 0.8125,-0.71875 0.625,-0.5 1.046875,-0.53125 1.25,-0.53125 v -0.3125 c -0.28125,0.03125 -0.40625,0.03125 -0.6875,0.03125 -0.359375,0 -0.984375,-0.015625 -1.125,-0.03125 v 0.3125 c 0.1875,0 0.296875,0.109375 0.296875,0.25 0,0.203125 -0.140625,0.3125 -0.21875,0.390625 l -1.40625,1.203125 v -4.78125 L 0.28125,-6.8125 V -6.5 c 0.703125,0 0.78125,0.0625 0.78125,0.5625 z m 0,0"
           id="path7791" />
      </symbol>
    </g>
  </defs>
  <sodipodi:namedview
     id="base"
     pagecolor="#ffffff"
     bordercolor="#666666"
     borderopacity="1.0"
     inkscape:pageopacity="0.0"
     inkscape:pageshadow="2"
     inkscape:zoom="1.979899"
     inkscape:cx="205.45861"
     inkscape:cy="115.46991"
     inkscape:document-units="mm"
     inkscape:current-layer="layer1"
     inkscape:document-rotation="0"
     showgrid="false"
     inkscape:window-width="1920"
     inkscape:window-height="1017"
     inkscape:window-x="1912"
     inkscape:window-y="-8"
     inkscape:window-maximized="1"
     fit-margin-top="0"
     fit-margin-left="0"
     fit-margin-right="0"
     fit-margin-bottom="0" />
  <metadata
     id="metadata5">
    <rdf:RDF>
      <cc:Work
         rdf:about="">
        <dc:format>image/svg+xml</dc:format>
        <dc:type
           rdf:resource="http://purl.org/dc/dcmitype/StillImage" />
        <dc:title />
      </cc:Work>
    </rdf:RDF>
  </metadata>
  <g
     inkscape:label="Taso 1"
     inkscape:groupmode="layer"
     id="layer1"
     transform="translate(-46.010487,-25.500765)">
    <g
       inkscape:label=""
       transform="translate(-222.07545,-43.526185)"
       id="g1030">
      <g
         id="g1285">
        <g
           style="fill:#000000;fill-opacity:1"
           id="g3837">
          <use
             xlink:href="#symbol6381"
             x="273.06799"
             y="88.383003"
             id="use4773"
             width="100%"
             height="100%"
             style="fill:#ff2929;fill-opacity:1" />
        </g>
        <path
           style="fill:#ff2929;stroke:#ff2929;stroke-width:0.398;stroke-linecap:butt;stroke-linejoin:miter;stroke-miterlimit:10;stroke-opacity:1;fill-opacity:1"
           d="M -0.0010625,-8.125e-4 H 14.94425"
           transform="matrix(1,0,0,-1,268.087,92.632)"
           id="path5271" />
        <g
           style="fill:#000000;fill-opacity:1"
           id="g4491">
          <use
             xlink:href="#symbol5625"
             x="268.08701"
             y="101.957"
             id="use1934"
             width="100%"
             height="100%"
             style="fill:#ff2929;fill-opacity:1" />
          <use
             xlink:href="#symbol4631"
             x="273.0683"
             y="101.957"
             id="use2898"
             width="100%"
             height="100%"
             style="fill:#ff2929;fill-opacity:1" />
          <use
             xlink:href="#symbol4631"
             x="278.04959"
             y="101.957"
             id="use2832"
             width="100%"
             height="100%"
             style="fill:#ff2929;fill-opacity:1" />
        </g>
        <g
           style="fill:#000000;fill-opacity:1"
           id="g3973">
          <use
             xlink:href="#symbol636"
             x="286.99399"
             y="95.123001"
             id="use2636"
             width="100%"
             height="100%" />
        </g>
        <g
           style="fill:#000000;fill-opacity:1"
           id="g8464">
          <use
             xlink:href="#symbol4631"
             x="297.51251"
             y="95.123001"
             id="use5225"
             width="100%"
             height="100%"
             style="fill:#ff2929;fill-opacity:1" />
        </g>
        <g
           style="fill:#000000;fill-opacity:1"
           id="g7891">
          <use
             xlink:href="#symbol2259"
             x="302.491"
             y="95.123001"
             id="use7979"
             width="100%"
             height="100%"
             style="fill:#ff2929;fill-opacity:1" />
        </g>
        <g
           style="fill:#000000;fill-opacity:1"
           id="g7156">
          <use
             xlink:href="#symbol4631"
             x="305.258"
             y="95.123001"
             id="use4349"
             width="100%"
             height="100%"
             style="fill:#ff2929;fill-opacity:1" />
          <use
             xlink:href="#symbol6381"
             x="310.23929"
             y="95.123001"
             id="use6352"
             width="100%"
             height="100%"
             style="fill:#ff2929;fill-opacity:1" />
        </g>
        <g
           style="fill:#000000;fill-opacity:1"
           id="g3796">
          <use
             xlink:href="#symbol636"
             x="317.9902"
             y="95.123001"
             id="use3489"
             width="100%"
             height="100%" />
        </g>
        <g
           style="fill:#000000;fill-opacity:1"
           id="g3757">
          <use
             xlink:href="#symbol6381"
             x="328.50873"
             y="95.123001"
             id="use6852"
             width="100%"
             height="100%"
             style="fill:#1aa217;fill-opacity:1" />
        </g>
        <g
           style="fill:#000000;fill-opacity:1"
           id="g4418">
          <use
             xlink:href="#symbol9032"
             x="336.80756"
             y="95.123001"
             id="use2435"
             width="100%"
             height="100%"
             style="fill:#1aa217;fill-opacity:1" />
        </g>
      </g>
    </g>
    <g
       inkscape:label=""
       transform="matrix(0.61602419,0,0,0.61602419,6.576297,-20.726382)"
       id="g1171"
       style="fill:#ff2929;fill-opacity:1">
      <g
         id="g3055"
         style="fill:#ff2929;fill-opacity:1">
        <g
           style="fill:#ff2929;fill-opacity:1"
           id="g9450">
          <use
             xlink:href="#symbol2479"
             x="91.925003"
             y="81.962997"
             id="use6325"
             width="100%"
             height="100%"
             style="fill:#ff2929;fill-opacity:1" />
          <use
             xlink:href="#symbol5863"
             x="97.46022"
             y="81.962997"
             id="use2480"
             width="100%"
             height="100%"
             style="fill:#ff2929;fill-opacity:1" />
          <use
             xlink:href="#symbol9050"
             x="101.36257"
             y="81.962997"
             id="use2823"
             width="100%"
             height="100%"
             style="fill:#ff2929;fill-opacity:1" />
          <use
             xlink:href="#symbol7357"
             x="106.34387"
             y="81.962997"
             id="use5299"
             width="100%"
             height="100%"
             style="fill:#ff2929;fill-opacity:1" />
          <use
             xlink:href="#symbol1505"
             x="110.27312"
             y="81.962997"
             id="use2528"
             width="100%"
             height="100%"
             style="fill:#ff2929;fill-opacity:1" />
          <use
             xlink:href="#symbol4413"
             x="114.7005"
             y="81.962997"
             id="use4786"
             width="100%"
             height="100%"
             style="fill:#ff2929;fill-opacity:1" />
        </g>
        <g
           style="fill:#ff2929;fill-opacity:1"
           id="g8393">
          <use
             xlink:href="#symbol5412"
             x="119.95676"
             y="81.962997"
             id="use3135"
             width="100%"
             height="100%"
             style="fill:#ff2929;fill-opacity:1" />
          <use
             xlink:href="#symbol5412"
             x="123.83122"
             y="81.962997"
             id="use5468"
             width="100%"
             height="100%"
             style="fill:#ff2929;fill-opacity:1" />
          <use
             xlink:href="#symbol7268"
             x="127.70568"
             y="81.962997"
             id="use8874"
             width="100%"
             height="100%"
             style="fill:#ff2929;fill-opacity:1" />
          <use
             xlink:href="#symbol6653"
             x="130.47328"
             y="81.962997"
             id="use5110"
             width="100%"
             height="100%"
             style="fill:#ff2929;fill-opacity:1" />
        </g>
        <g
           style="fill:#ff2929;fill-opacity:1"
           id="g3725">
          <use
             xlink:href="#symbol1505"
             x="135.45259"
             y="81.962997"
             id="use5632"
             width="100%"
             height="100%"
             style="fill:#ff2929;fill-opacity:1" />
          <use
             xlink:href="#symbol5863"
             x="139.87997"
             y="81.962997"
             id="use1091"
             width="100%"
             height="100%"
             style="fill:#ff2929;fill-opacity:1" />
          <use
             xlink:href="#symbol5863"
             x="143.78233"
             y="81.962997"
             id="use3433"
             width="100%"
             height="100%"
             style="fill:#ff2929;fill-opacity:1" />
          <use
             xlink:href="#symbol9050"
             x="147.68468"
             y="81.962997"
             id="use847"
             width="100%"
             height="100%"
             style="fill:#ff2929;fill-opacity:1" />
          <use
             xlink:href="#symbol7268"
             x="152.66597"
             y="81.962997"
             id="use9513"
             width="100%"
             height="100%"
             style="fill:#ff2929;fill-opacity:1" />
          <use
             xlink:href="#symbol4413"
             x="155.43358"
             y="81.962997"
             id="use9711"
             width="100%"
             height="100%"
             style="fill:#ff2929;fill-opacity:1" />
        </g>
      </g>
    </g>
    <g
       inkscape:label=""
       transform="matrix(0.61602419,0,0,0.61602419,39.704567,17.928398)"
       id="g1355"
       style="fill:#1aa217;fill-opacity:1">
      <g
         id="g9693"
         style="fill:#1aa217;fill-opacity:1">
        <g
           style="fill:#1aa217;fill-opacity:1"
           id="g2332">
          <use
             xlink:href="#symbol8431"
             x="91.925003"
             y="81.962997"
             id="use4718"
             width="100%"
             height="100%"
             style="fill:#1aa217;fill-opacity:1" />
          <use
             xlink:href="#symbol8059"
             x="97.46022"
             y="81.962997"
             id="use8795"
             width="100%"
             height="100%"
             style="fill:#1aa217;fill-opacity:1" />
          <use
             xlink:href="#symbol1712"
             x="101.36257"
             y="81.962997"
             id="use238"
             width="100%"
             height="100%"
             style="fill:#1aa217;fill-opacity:1" />
          <use
             xlink:href="#symbol1044"
             x="106.34387"
             y="81.962997"
             id="use5800"
             width="100%"
             height="100%"
             style="fill:#1aa217;fill-opacity:1" />
          <use
             xlink:href="#symbol352"
             x="110.27312"
             y="81.962997"
             id="use4907"
             width="100%"
             height="100%"
             style="fill:#1aa217;fill-opacity:1" />
          <use
             xlink:href="#symbol153"
             x="114.7005"
             y="81.962997"
             id="use8828"
             width="100%"
             height="100%"
             style="fill:#1aa217;fill-opacity:1" />
        </g>
        <g
           style="fill:#1aa217;fill-opacity:1"
           id="g7658">
          <use
             xlink:href="#symbol7241"
             x="119.95676"
             y="81.962997"
             id="use2875"
             width="100%"
             height="100%"
             style="fill:#1aa217;fill-opacity:1" />
          <use
             xlink:href="#symbol7241"
             x="123.83122"
             y="81.962997"
             id="use7756"
             width="100%"
             height="100%"
             style="fill:#1aa217;fill-opacity:1" />
          <use
             xlink:href="#symbol419"
             x="127.70568"
             y="81.962997"
             id="use8952"
             width="100%"
             height="100%"
             style="fill:#1aa217;fill-opacity:1" />
          <use
             xlink:href="#symbol5221"
             x="130.47328"
             y="81.962997"
             id="use1642"
             width="100%"
             height="100%"
             style="fill:#1aa217;fill-opacity:1" />
          <use
             xlink:href="#symbol1259"
             x="133.24089"
             y="81.962997"
             id="use1992"
             width="100%"
             height="100%"
             style="fill:#1aa217;fill-opacity:1" />
          <use
             xlink:href="#symbol9737"
             x="138.77612"
             y="81.962997"
             id="use1196"
             width="100%"
             height="100%"
             style="fill:#1aa217;fill-opacity:1" />
          <use
             xlink:href="#symbol1259"
             x="144.03438"
             y="81.962997"
             id="use7420"
             width="100%"
             height="100%"
             style="fill:#1aa217;fill-opacity:1" />
        </g>
      </g>
    </g>
    <path
       style="fill:none;fill-opacity:1;stroke:#ff2929;stroke-width:0.5;stroke-linecap:butt;stroke-linejoin:miter;stroke-miterlimit:4;stroke-dasharray:none;stroke-opacity:1"
       d="M 83.922631,31.136899 V 42.094951"
       id="path1401" />
    <path
       style="fill:none;fill-opacity:1;stroke:#1aa217;stroke-width:0.5;stroke-linecap:butt;stroke-linejoin:miter;stroke-miterlimit:4;stroke-dasharray:none;stroke-opacity:1"
       d="M 113.18864,53.053 V 64.011052"
       id="path1401-1" />
    <path
       style="fill:none;fill-opacity:1;stroke:#ff2929;stroke-width:0.5;stroke-linecap:butt;stroke-linejoin:miter;stroke-miterlimit:4;stroke-dasharray:none;stroke-opacity:1"
       d="M 82.158691,30.97979 59.106694,41.937842"
       id="path1401-4"
       sodipodi:nodetypes="cc" />
  </g>
</svg>
